<svg xmlns="http://www.w3.org/2000/svg" xmlns:xlink="http://www.w3.org/1999/xlink" width="49.75" height="70.15" transform="scale(-1 1)"><g transform="translate(32.75 36.25)"><use xlink:href="#a" width="29.35" height="41.55" transform="translate(-12.35 -33.05)"/><use xlink:href="#b" width="18.45" height="19.75" transform="translate(-13.95 -35.9)"/></g><defs><g id="a"><path fill="none" stroke="#000" stroke-linecap="round" stroke-linejoin="round" stroke-width="5" d="M23.75 26.25q1.25-.65 2.15-2.5.95-1.8.95-3.5 0-3.5-2.6-7.7Q21.6 8.3 21.6 6.7l.1-2.15Q22 3.4 23.25 2.5"/><path fill-rule="evenodd" d="M22.65 27.15q0 3.3-2.25 5.65t-5.45 2.35T9.5 32.8t-2.25-5.65T9.5 21.5t5.45-2.35 5.45 2.35 2.25 5.65"/><path fill="none" stroke="#000" stroke-linecap="round" stroke-linejoin="round" stroke-width="5" d="M22.65 27.15q0 3.3-2.25 5.65t-5.45 2.35T9.5 32.8t-2.25-5.65T9.5 21.5t5.45-2.35 5.45 2.35 2.25 5.65"/><path fill-rule="evenodd" d="M15.75 19.75q0 2.65-1.8 4.5-1.85 1.9-4.45 1.9-2.55 0-4.4-1.9-1.85-1.85-1.85-4.5T5.1 15.2q1.85-1.85 4.4-1.85 2.6 0 4.45 1.85 1.8 1.9 1.8 4.55"/><path fill="none" stroke="#000" stroke-linecap="round" stroke-linejoin="round" stroke-width="5" d="M15.75 19.75q0 2.65-1.8 4.5-1.85 1.9-4.45 1.9-2.55 0-4.4-1.9-1.85-1.85-1.85-4.5T5.1 15.2q1.85-1.85 4.4-1.85 2.6 0 4.45 1.85 1.8 1.9 1.8 4.55m1.55 15.9 4.65-3.4m-18.6-11.9 2.15 9.2m0 0L3.75 37.8m0 0H2.5M11.85 22l1.75 8.8m0 0-2.5 8.1m.1-.25-2.3.4"/></g><g id="b" fill-rule="evenodd"><path d="M18.4 12.95q-.3 3.25-3.15 4.45-2.7 2.65-7.1 2.3-2.55-.85-4.95-2.15Q.25 15.9 0 12.35q-.2-3.4 2-6.05 2.2-2.7 5.6-3.15 3.4-.4 6.2 1.5 2.8 1.95 4.05 5.1.7 1.5.55 3.2"/><path d="M13.5.05Q15.2-.4 17 6.5q.55 2.15.5 2.85l-1.25.35Q13.6 8.6 12.1 7.6q-2.05-1.35-2.85-2.95l.1-.05.1-.2.75.2.35.15L11.6 2.4Q12.7.25 13.5.05M.45 4.7.9.25q1.3.7 2.4 1.6 1.8 1.4 2.15 2.55.35 1.45-1.15 3-1.25 1.4-2.95 2Q.4 7.65.45 4.7"/></g></defs></svg>