<svg xmlns="http://www.w3.org/2000/svg" xmlns:xlink="http://www.w3.org/1999/xlink" width="76.4" height="40.05"><g transform="translate(53.65 32.95)"><use xlink:href="#a" width="33.3" height="36.8" transform="translate(-12.3 -30.05)"/><use xlink:href="#b" width="16.3" height="16.6" transform="translate(-17.5 -32.95)"/></g><defs><path id="b" fill-rule="evenodd" d="M1.05-33.65q3.15 3.1.6 6.8L.5-25.5q-.7.5-2 .65l-2.7.7-2.3-.1q-2.1.35-4.05-.7-2.65-1.7-2.95-4.9l1.45-1.25q.1-2.6 1.85-4.4 1.05-1.25 2.45-1.65l.4-3.4q6.45 4.95 8.4 6.9" transform="translate(13.5 40.55)"/><g id="a"><path fill="none" stroke="#000" stroke-linecap="round" stroke-linejoin="round" stroke-width="5" d="M27.7 26.25q1.25-.65 2.15-2.5.95-1.8.95-3.5 0-3.5-2.6-7.7-2.65-4.25-2.65-5.85l.1-2.15q.3-1.15 1.55-2.05"/><path fill-rule="evenodd" d="M24.8 24.15q0 3.3-2.25 5.65t-5.45 2.35-5.45-2.35-2.25-5.65 2.25-5.65 5.45-2.35 5.45 2.35 2.25 5.65"/><path fill="none" stroke="#000" stroke-linecap="round" stroke-linejoin="round" stroke-width="5" d="M24.8 24.15q0 3.3-2.25 5.65t-5.45 2.35-5.45-2.35-2.25-5.65 2.25-5.65 5.45-2.35 5.45 2.35 2.25 5.65"/><path fill-rule="evenodd" d="M8 16.55q-2.15-.95-3.6-2.9T3 9.85q-.1-1.8 1.4-2.4 1.55-.6 3.65.35 2.05.95 3.55 2.9 1.45 1.95 1.45 3.8-.05 1.75-1.6 2.35-1.45.6-3.45-.3"/><path fill="none" stroke="#000" stroke-linecap="round" stroke-linejoin="round" stroke-width="5" d="M8 16.55q-2.15-.95-3.6-2.9T3 9.85q-.1-1.8 1.4-2.4 1.55-.6 3.65.35 2.05.95 3.55 2.9 1.45 1.95 1.45 3.8-.05 1.75-1.6 2.35-1.45.6-3.45-.3m3.65 17.75 4.6-.8 4.7-.2"/><path fill="none" stroke="#000" stroke-linecap="round" stroke-linejoin="round" stroke-width="5" d="M12.3 12.7h1.1q.55.95 1.7 1.3 1.2.35 1.85 1.25.8 1.05 1.1 2.25l.3 2.5M2.5 11.4q1.3.15 2.05 1.85.7 1.6 1.75 1.55l.7 5.3q.7 4.2.7 6.25 0 3.2-.55 4.75-.8 2.25-2.85 1.95"/></g></defs></svg>