<svg xmlns="http://www.w3.org/2000/svg" xmlns:xlink="http://www.w3.org/1999/xlink" width="76.4" height="40.05" transform="scale(-1 1)"><g transform="translate(53.65 32.95)"><use xlink:href="#a" width="33.75" height="38.65" transform="translate(-11 -32.15)"/><use xlink:href="#b" width="16.3" height="16.6" transform="translate(-20.9 -23.95)"/></g><defs><path id="b" fill-rule="evenodd" d="M1.05-33.65q3.15 3.1.6 6.8L.5-25.5q-.7.5-2 .65l-2.7.7-2.3-.1q-2.1.35-4.05-.7-2.65-1.7-2.95-4.9l1.45-1.25q.1-2.6 1.85-4.4 1.05-1.25 2.45-1.65l.4-3.4q6.45 4.95 8.4 6.9" transform="translate(13.5 40.55)"/><g id="a"><path fill="none" stroke="#000" stroke-linecap="round" stroke-linejoin="round" stroke-width="5" d="M26.65 19.5q2.35 0 3.1-1.05.5-.75.5-2.85 0-2.25-1.1-3.75-1.1-1.55-1.1-2.65 0-1.25 1.6-4.05l1.6-2.65"/><path fill-rule="evenodd" d="M27 21.15q0 2.75-2.5 4.7-2.5 2-6.05 2t-6-2q-2.5-1.95-2.5-4.7 0-2.8 2.5-4.75 2.45-1.95 6-1.95t6.05 1.95 2.5 4.75"/><path fill="none" stroke="#000" stroke-linecap="round" stroke-linejoin="round" stroke-width="5" d="M27 21.15q0 2.75-2.5 4.7-2.5 2-6.05 2t-6-2q-2.5-1.95-2.5-4.7 0-2.8 2.5-4.75 2.45-1.95 6-1.95t6.05 1.95 2.5 4.75"/><path fill-rule="evenodd" d="M7.5 23.85q-2.15-.95-3.6-2.9t-1.4-3.8q-.1-1.8 1.4-2.4 1.55-.6 3.65.35 2.05.95 3.55 2.9 1.45 1.95 1.45 3.8-.05 1.75-1.6 2.35-1.45.6-3.45-.3"/><path fill="none" stroke="#000" stroke-linecap="round" stroke-linejoin="round" stroke-width="5" d="M7.5 23.85q-2.15-.95-3.6-2.9t-1.4-3.8q-.1-1.8 1.4-2.4 1.55-.6 3.65.35 2.05.95 3.55 2.9 1.45 1.95 1.45 3.8-.05 1.75-1.6 2.35-1.45.6-3.45-.3M11 14.8h1.1q.55.95 1.7 1.3 1.2.35 1.85 1.25.8 1.05 1.1 2.25l.3 2.5M14.8 36.15H19q.8-2.3 2.45-4.1 1.85-2 4-2.55l-3.8-4.6"/><path fill="none" stroke="#000" stroke-linecap="round" stroke-linejoin="round" stroke-width="5" d="M3.2 35.75q1.75 0 4.9-3.45 2.9-3.15 2.9-4 0-.95-3.55-5L3.6 19.1"/></g></defs></svg>