<svg xmlns="http://www.w3.org/2000/svg" xmlns:xlink="http://www.w3.org/1999/xlink" width="76.4" height="40.05" transform="scale(-1 1)"><g transform="translate(53.65 32.95)"><use xlink:href="#a" width="46.9" height="37.85" transform="translate(-42.6 -31.75)"/><use xlink:href="#b" width="16.3" height="16.6" transform="translate(-48.25 -23.45)"/></g><defs><path id="b" fill-rule="evenodd" d="M1.05-33.65q3.15 3.1.6 6.8L.5-25.5q-.7.5-2 .65l-2.7.7-2.3-.1q-2.1.35-4.05-.7-2.65-1.7-2.95-4.9l1.45-1.25q.1-2.6 1.85-4.4 1.05-1.25 2.45-1.65l.4-3.4q6.45 4.95 8.4 6.9" transform="translate(13.5 40.55)"/><g id="a"><path fill="none" stroke="#000" stroke-linecap="round" stroke-linejoin="round" stroke-width="5" d="M28.4 13.5q3.05.35 5-1.4 1.2-1 2.9-3.95t2.9-4.05q2.05-1.8 5.2-1.6"/><path fill-rule="evenodd" d="M32 14.05q.7 2.5-1.2 4.95-1.95 2.4-5.4 3.35l-6.25-.2q-2.9-1.15-3.6-3.65-.65-2.55 1.25-4.95 1.95-2.45 5.35-3.35l6.3.2q2.9 1.1 3.55 3.65"/><path fill="none" stroke="#000" stroke-linecap="round" stroke-linejoin="round" stroke-width="5" d="M32 14.05q.7 2.5-1.2 4.95-1.95 2.4-5.4 3.35l-6.25-.2q-2.9-1.15-3.6-3.65-.65-2.55 1.25-4.95 1.95-2.45 5.35-3.35l6.3.2q2.9 1.1 3.55 3.65"/><path fill-rule="evenodd" d="M9.8 21.2q-2.55-.9-3.5-2.55-1.05-1.6.25-3.1 1.35-1.55 4.15-2l5.45.4q2.6.9 3.55 2.6.9 1.6-.5 3.15-1.25 1.45-3.9 1.9-2.85.5-5.5-.4"/><path fill="none" stroke="#000" stroke-linecap="round" stroke-linejoin="round" stroke-width="5" d="M9.8 21.2q-2.55-.9-3.5-2.55-1.05-1.6.25-3.1 1.35-1.55 4.15-2l5.45.4q2.6.9 3.55 2.6.9 1.6-.5 3.15-1.25 1.45-3.9 1.9-2.85.5-5.5-.4m25.7 1.7q-2.1 1.05-4.65 3.5-2.3 2.2-4 4.55m.9-7.55 1.4-.7.2-.2-1.05.4-.25.1zq-.95 1.15-2.25 1.25l-3.3-.05h.2l2.65-.75h-1.1l.2-.75q.9 0 4.2-1h7.15m-10.45 1.75.95-.25 2.05-.6m-.3.4-1.1.45h-1.6"/><path fill="none" stroke="#000" stroke-linecap="round" stroke-linejoin="round" stroke-width="5" d="m2.7 35.35 6.8-8.2q4.1-5.1 3.45-8"/><path fill="none" stroke="#000" stroke-linecap="round" stroke-linejoin="round" stroke-width="5" d="M9.1 22.55 7.3 30.6q-1.6 4.85-4.8 4.35"/></g></defs></svg>