<svg fill="currentColor" stroke="currentColor" color="cat-color" xmlns="http://www.w3.org/2000/svg" xmlns:xlink="http://www.w3.org/1999/xlink" width="46.9" height="68.95"><g transform="translate(28.9 59.25)"><use xlink:href="#a" width="27.35" height="33.35" transform="translate(-11.6 -23.65)"/><use xlink:href="#b" width="18.45" height="19.75" transform="translate(-13.95 -35.9)"/></g><defs><g id="a"><path fill="none" stroke="currentColor" stroke-linecap="round" stroke-linejoin="round" stroke-width="5" d="M21.75 26.25q1.25-.65 2.15-2.5.95-1.8.95-3.5 0-3.5-2.6-7.7Q19.6 8.3 19.6 6.7l.1-2.15Q20 3.4 21.25 2.5"/><path fill-rule="evenodd" d="M21.2 22.85q0 3.3-2.25 5.65t-5.45 2.35-5.45-2.35-2.25-5.65 2.25-5.65 5.45-2.35 5.45 2.35 2.25 5.65"/><path fill="none" stroke="currentColor" stroke-linecap="round" stroke-linejoin="round" stroke-width="5" d="M21.2 22.85q0 3.3-2.25 5.65t-5.45 2.35-5.45-2.35-2.25-5.65 2.25-5.65 5.45-2.35 5.45 2.35 2.25 5.65"/><path fill-rule="evenodd" d="M15 10.35q0 2.65-1.8 4.5-1.85 1.9-4.45 1.9-2.55 0-4.4-1.9Q2.5 13 2.5 10.35T4.35 5.8q1.85-1.85 4.4-1.85 2.6 0 4.45 1.85Q15 7.7 15 10.35"/><path fill="none" stroke="currentColor" stroke-linecap="round" stroke-linejoin="round" stroke-width="5" d="M15 10.35q0 2.65-1.8 4.5-1.85 1.9-4.45 1.9-2.55 0-4.4-1.9Q2.5 13 2.5 10.35T4.35 5.8q1.85-1.85 4.4-1.85 2.6 0 4.45 1.85Q15 7.7 15 10.35M4.35 26.4q.25 1.7 1.5 1.65 1.45-.1 1.75.6.55 1.1 1.3 1.5l2.2.25"/><path fill="none" stroke="currentColor" stroke-linecap="round" stroke-linejoin="round" stroke-width="5" d="M4.35 8.65 4.6 19.3l-.1 3.6q-.35 2-1.65 1.75v1.25h.25m11.5-14.5q1.05-.15 1.45 1.65.45 1.85 1.8 1.85-.1.9.3 2.6l.45 2.15"/></g><g id="b" fill-rule="evenodd"><path d="M18.4 12.95q-.3 3.25-3.15 4.45-2.7 2.65-7.1 2.3-2.55-.85-4.95-2.15Q.25 15.9 0 12.35q-.2-3.4 2-6.05 2.2-2.7 5.6-3.15 3.4-.4 6.2 1.5 2.8 1.95 4.05 5.1.7 1.5.55 3.2"/><path d="M13.5.05Q15.2-.4 17 6.5q.55 2.15.5 2.85l-1.25.35Q13.6 8.6 12.1 7.6q-2.05-1.35-2.85-2.95l.1-.05.1-.2.75.2.35.15L11.6 2.4Q12.7.25 13.5.05M.45 4.7.9.25q1.3.7 2.4 1.6 1.8 1.4 2.15 2.55.35 1.45-1.15 3-1.25 1.4-2.95 2Q.4 7.65.45 4.7"/></g></defs></svg>
