<svg fill="currentColor" stroke="currentColor" color="cat-color" xmlns="http://www.w3.org/2000/svg" xmlns:xlink="http://www.w3.org/1999/xlink" width="46.9" height="68.95"><g transform="translate(28.9 59.25)"><use xlink:href="#a" width="30" height="45.2" transform="translate(-14.25 -35.95)"/><use xlink:href="#b" width="18.45" height="19.75" transform="translate(-18.95 -36.05)"/></g><defs><g id="a"><path fill="none" stroke="currentColor" stroke-linecap="round" stroke-linejoin="round" stroke-width="5" d="M24.4 26.25q1.25-.65 2.15-2.5.95-1.8.95-3.5 0-3.5-2.6-7.7-2.65-4.25-2.65-5.85l.1-2.15q.3-1.15 1.55-2.05"/><path fill-rule="evenodd" d="M25.4 27.65q0 3.3-2.25 5.65t-5.45 2.35-5.45-2.35T10 27.65 12.25 22t5.45-2.35T23.15 22t2.25 5.65"/><path fill="none" stroke="currentColor" stroke-linecap="round" stroke-linejoin="round" stroke-width="5" d="M25.4 27.65q0 3.3-2.25 5.65t-5.45 2.35-5.45-2.35T10 27.65 12.25 22t5.45-2.35T23.15 22t2.25 5.65"/><path fill-rule="evenodd" d="M15 17.05q0 2.65-1.8 4.5-1.85 1.9-4.45 1.9-2.55 0-4.4-1.9-1.85-1.85-1.85-4.5t1.85-4.55q1.85-1.85 4.4-1.85 2.6 0 4.45 1.85 1.8 1.9 1.8 4.55"/><path fill="none" stroke="currentColor" stroke-linecap="round" stroke-linejoin="round" stroke-width="5" d="M15 17.05q0 2.65-1.8 4.5-1.85 1.9-4.45 1.9-2.55 0-4.4-1.9-1.85-1.85-1.85-4.5t1.85-4.55q1.85-1.85 4.4-1.85 2.6 0 4.45 1.85 1.8 1.9 1.8 4.55M11.75 42.7q2.3-.7 2.35-4.9.1-4.7 1.15-5.6M20.5 41.2q.7-.1 3.05-3.35 2.45-3.3 2.45-4.5 0-.55-1.05-1.7L23.5 30.2"/><path fill="none" stroke="currentColor" stroke-linecap="round" stroke-linejoin="round" stroke-width="5" d="m3.2 19.05 3 10.2.85 3.55q.15 2-1.15 2.05l.35 1.2.25-.05M17.25 23.7q1.05-.15 1.45 1.65.45 1.85 1.8 1.85-.1.9.3 2.6l.45 2.15M14.6 12.95H13l1.75 1.55q.85.9 2 1.2.7.2 1.1 1.25l.3 1h.6q-.65-.75-2-3.4-.8-1.6-2.15-1.6m1.15 3.5q1.1.35 1.5 1.75.2-.2.9-.25l.35 1"/></g><g id="b" fill-rule="evenodd"><path d="M18.4 12.95q-.3 3.25-3.15 4.45-2.7 2.65-7.1 2.3-2.55-.85-4.95-2.15Q.25 15.9 0 12.35q-.2-3.4 2-6.05 2.2-2.7 5.6-3.15 3.4-.4 6.2 1.5 2.8 1.95 4.05 5.1.7 1.5.55 3.2"/><path d="M13.5.05Q15.2-.4 17 6.5q.55 2.15.5 2.85l-1.25.35Q13.6 8.6 12.1 7.6q-2.05-1.35-2.85-2.95l.1-.05.1-.2.75.2.35.15L11.6 2.4Q12.7.25 13.5.05M.45 4.7.9.25q1.3.7 2.4 1.6 1.8 1.4 2.15 2.55.35 1.45-1.15 3-1.25 1.4-2.95 2Q.4 7.65.45 4.7"/></g></defs></svg>
