<svg xmlns="http://www.w3.org/2000/svg" xmlns:xlink="http://www.w3.org/1999/xlink" width="46.9" height="68.95"><g transform="translate(28.9 59.25)"><use xlink:href="#a" width="40.5" height="48.8" transform="translate(-22.5 -40.8)"/><use xlink:href="#b" width="18.45" height="19.75" transform="translate(-23.7 -53.1)"/></g><defs><g id="a"><path fill="none" stroke="#000" stroke-linecap="round" stroke-linejoin="round" stroke-width="5" d="m26.75 20.3 8.05-1.35q3.2-1.35 3.2-6.3 0-1.3-.5-3.05L37 7.4q0-.85.5-1.85"/><path fill-rule="evenodd" d="M28.75 19.5q0 3.3-2.25 5.65t-5.45 2.35-5.45-2.35-2.25-5.65 2.25-5.65 5.45-2.35 5.45 2.35 2.25 5.65"/><path fill="none" stroke="#000" stroke-linecap="round" stroke-linejoin="round" stroke-width="5" d="M28.75 19.5q0 3.3-2.25 5.65t-5.45 2.35-5.45-2.35-2.25-5.65 2.25-5.65 5.45-2.35 5.45 2.35 2.25 5.65"/><path fill-rule="evenodd" d="M21.25 8.9q0 2.65-1.8 4.5-1.85 1.9-4.45 1.9-2.55 0-4.4-1.9-1.85-1.85-1.85-4.5t1.85-4.55Q12.45 2.5 15 2.5q2.6 0 4.45 1.85 1.8 1.9 1.8 4.55"/><path fill="none" stroke="#000" stroke-linecap="round" stroke-linejoin="round" stroke-width="5" d="M21.25 8.9q0 2.65-1.8 4.5-1.85 1.9-4.45 1.9-2.55 0-4.4-1.9-1.85-1.85-1.85-4.5t1.85-4.55Q12.45 2.5 15 2.5q2.6 0 4.45 1.85 1.8 1.9 1.8 4.55M19.3 46.3q.75-.85.7-5.1-.1-4.1 1.3-5.15-2.05-2.8-1.75-11.25H17.8q0 .2-.55.6-.6.4-.95.4v2.25l1.1 3.1q.2.95.85 1.75t.8 1.9h.5m6.95 9.25h.75q0-4.25.75-5.75l1.25-2.75.75-1.9q0-.6-2.5-2.55-2.5-2-2.5-3.3l.15-1 .1-1.25 2.5-.25v4M2.5 10.05l.4 2.4q.55 1.35 2.1 1.1v2.5h2.5l.5-1-.25.25v-.5q0-.8-.75-4.65 0-.55.5-.75l1-.35-1-.25.15-.7q.2-.4.6-.55"/></g><g id="b" fill-rule="evenodd"><path d="M18.4 12.95q-.3 3.25-3.15 4.45-2.7 2.65-7.1 2.3-2.55-.85-4.95-2.15Q.25 15.9 0 12.35q-.2-3.4 2-6.05 2.2-2.7 5.6-3.15 3.4-.4 6.2 1.5 2.8 1.95 4.05 5.1.7 1.5.55 3.2"/><path d="M13.5.05Q15.2-.4 17 6.5q.55 2.15.5 2.85l-1.25.35Q13.6 8.6 12.1 7.6q-2.05-1.35-2.85-2.95l.1-.05.1-.2.75.2.35.15L11.6 2.4Q12.7.25 13.5.05M.45 4.7.9.25q1.3.7 2.4 1.6 1.8 1.4 2.15 2.55.35 1.45-1.15 3-1.25 1.4-2.95 2Q.4 7.65.45 4.7"/></g></defs></svg>