<svg xmlns="http://www.w3.org/2000/svg" xmlns:xlink="http://www.w3.org/1999/xlink" width="46.9" height="68.95"><g transform="translate(28.9 59.25)"><use xlink:href="#a" width="42" height="32.85" transform="translate(-25.25 -54.6)"/><use xlink:href="#b" width="18.45" height="19.75" transform="translate(-28.9 -59.25)"/></g><defs><g id="a"><path fill="none" stroke="#000" stroke-linecap="round" stroke-linejoin="round" stroke-width="5" d="M23.75 13.85q2.8-.4 9.15 0 5.25-.05 6.6-2.5"/><path fill-rule="evenodd" d="M24.65 15.05q0 3.3-2.25 5.65t-5.45 2.35-5.45-2.35-2.25-5.65T11.5 9.4t5.45-2.35T22.4 9.4t2.25 5.65"/><path fill="none" stroke="#000" stroke-linecap="round" stroke-linejoin="round" stroke-width="5" d="M24.65 15.05q0 3.3-2.25 5.65t-5.45 2.35-5.45-2.35-2.25-5.65T11.5 9.4t5.45-2.35T22.4 9.4t2.25 5.65"/><path fill-rule="evenodd" d="M16.25 8.9q0 2.65-1.8 4.5-1.85 1.9-4.45 1.9-2.55 0-4.4-1.9-1.85-1.85-1.85-4.5T5.6 4.35Q7.45 2.5 10 2.5q2.6 0 4.45 1.85 1.8 1.9 1.8 4.55"/><path fill="none" stroke="#000" stroke-linecap="round" stroke-linejoin="round" stroke-width="5" d="M16.25 8.9q0 2.65-1.8 4.5-1.85 1.9-4.45 1.9-2.55 0-4.4-1.9-1.85-1.85-1.85-4.5T5.6 4.35Q7.45 2.5 10 2.5q2.6 0 4.45 1.85 1.8 1.9 1.8 4.55M15 17.35q-.7.25-1.6 1.7l-1.15 1.8v2l6.25.25v1.25l-3.45 2.3q-2.1 1.55-2.05 3.7m11-7.75q-.55 1.2-2.4 3.3-1.7 1.9-2.1 2.95h-2M4 13.85h.25l.25 5.75q.45 1.85.4 3.65-.05 3.5-2.4 3.85m6.25-9.5.05 4.55q0 2.7-.55 3.95.25 0 .75-.5"/></g><g id="b" fill-rule="evenodd"><path d="M18.4 12.95q-.3 3.25-3.15 4.45-2.7 2.65-7.1 2.3-2.55-.85-4.95-2.15Q.25 15.9 0 12.35q-.2-3.4 2-6.05 2.2-2.7 5.6-3.15 3.4-.4 6.2 1.5 2.8 1.95 4.05 5.1.7 1.5.55 3.2"/><path d="M13.5.05Q15.2-.4 17 6.5q.55 2.15.5 2.85l-1.25.35Q13.6 8.6 12.1 7.6q-2.05-1.35-2.85-2.95l.1-.05.1-.2.75.2.35.15L11.6 2.4Q12.7.25 13.5.05M.45 4.7.9.25q1.3.7 2.4 1.6 1.8 1.4 2.15 2.55.35 1.45-1.15 3-1.25 1.4-2.95 2Q.4 7.65.45 4.7"/></g></defs></svg>