<svg xmlns="http://www.w3.org/2000/svg" xmlns:xlink="http://www.w3.org/1999/xlink" width="46.9" height="68.95"><g transform="translate(28.9 59.25)"><use xlink:href="#a" width="40.75" height="40.8" transform="translate(-22.75 -49.3)"/><use xlink:href="#b" width="18.45" height="19.75" transform="translate(-28.4 -57)"/></g><defs><g id="a"><path fill="none" stroke="#000" stroke-linecap="round" stroke-linejoin="round" stroke-width="5" d="m25.25 15.05 1.65-.75q1.2-.75 1.1-1.75h2.5q-.35 2.25 1.5 2.25l.25 1.5h4.5l.85-1 .65-.75"/><path fill-rule="evenodd" d="M26.45 16.75q0 3.3-2.25 5.65t-5.45 2.35-5.45-2.35-2.25-5.65 2.25-5.65 5.45-2.35 5.45 2.35 2.25 5.65"/><path fill="none" stroke="#000" stroke-linecap="round" stroke-linejoin="round" stroke-width="5" d="M26.45 16.75q0 3.3-2.25 5.65t-5.45 2.35-5.45-2.35-2.25-5.65 2.25-5.65 5.45-2.35 5.45 2.35 2.25 5.65"/><path fill-rule="evenodd" d="M17.25 8.9q0 2.65-1.8 4.5-1.85 1.9-4.45 1.9-2.55 0-4.4-1.9-1.85-1.85-1.85-4.5T6.6 4.35Q8.45 2.5 11 2.5q2.6 0 4.45 1.85 1.8 1.9 1.8 4.55"/><path fill="none" stroke="#000" stroke-linecap="round" stroke-linejoin="round" stroke-width="5" d="M17.25 8.9q0 2.65-1.8 4.5-1.85 1.9-4.45 1.9-2.55 0-4.4-1.9-1.85-1.85-1.85-4.5T6.6 4.35Q8.45 2.5 11 2.5q2.6 0 4.45 1.85 1.8 1.9 1.8 4.55m-4 13.9q0 2.25 1.75 7.5h2.5q.5-1 .5-2h.25q-.15 1.3.65 5.15.75 3.75.6 4.85m7.75-2.25q0-1 .5-1.5v-9l-2.25.25-.25-6.25"/><path fill="none" stroke="#000" stroke-linecap="round" stroke-linejoin="round" stroke-width="5" d="m3.25 10.3.25 8.25v.5l.4-.5q1.35-1.7 1.35-5.25.5.5 1.75.5v6.5h.5q.4-1.1 1.85-2.75 1.45-1.6 1.9-3m-7.75 4.5v2.5h-.75l-.1-.15-.15-.5q0-.6 1-1.85"/></g><g id="b" fill-rule="evenodd"><path d="M18.4 12.95q-.3 3.25-3.15 4.45-2.7 2.65-7.1 2.3-2.55-.85-4.95-2.15Q.25 15.9 0 12.35q-.2-3.4 2-6.05 2.2-2.7 5.6-3.15 3.4-.4 6.2 1.5 2.8 1.95 4.05 5.1.7 1.5.55 3.2"/><path d="M13.5.05Q15.2-.4 17 6.5q.55 2.15.5 2.85l-1.25.35Q13.6 8.6 12.1 7.6q-2.05-1.35-2.85-2.95l.1-.05.1-.2.75.2.35.15L11.6 2.4Q12.7.25 13.5.05M.45 4.7.9.25q1.3.7 2.4 1.6 1.8 1.4 2.15 2.55.35 1.45-1.15 3-1.25 1.4-2.95 2Q.4 7.65.45 4.7"/></g></defs></svg>