<svg xmlns="http://www.w3.org/2000/svg" xmlns:xlink="http://www.w3.org/1999/xlink" width="49.75" height="70.15" transform="scale(-1 1)"><g transform="translate(32.75 36.25)"><use xlink:href="#a" width="30.15" height="44.75" transform="translate(-13.15 -36.25)"/><use xlink:href="#b" width="18.45" height="19.75" transform="translate(-23.55 -24.35)"/></g><defs><g id="a"><path fill="none" stroke="#000" stroke-linecap="round" stroke-linejoin="round" stroke-width="5" d="M24.55 25.05q1.25-.6 2.15-2.4.95-1.7.95-3.3 0-3.3-2.6-7.3Q22.4 8 22.4 6.5l.1-2.05q.3-1.1 1.55-1.95"/><path fill-rule="evenodd" d="M21.85 29.3q-2.25 2.35-5.45 2.35t-5.45-2.35-2.25-5.65T10.95 18t5.45-2.35T21.85 18t2.25 5.65-2.25 5.65"/><path fill="none" stroke="#000" stroke-linecap="round" stroke-linejoin="round" stroke-width="4" d="M21.85 29.3q-2.25 2.35-5.45 2.35t-5.45-2.35-2.25-5.65T10.95 18t5.45-2.35T21.85 18t2.25 5.65-2.25 5.65"/><path fill-rule="evenodd" d="M12.7 27.9q-1.85 1.9-4.45 1.9-2.55 0-4.4-1.9Q2 26.05 2 23.4t1.85-4.55Q5.7 17 8.25 17q2.6 0 4.45 1.85 1.8 1.9 1.8 4.55t-1.8 4.5"/><path fill="none" stroke="#000" stroke-linecap="round" stroke-linejoin="round" stroke-width="4" d="M12.7 27.9q-1.85 1.9-4.45 1.9-2.55 0-4.4-1.9Q2 26.05 2 23.4t1.85-4.55Q5.7 17 8.25 17q2.6 0 4.45 1.85 1.8 1.9 1.8 4.55t-1.8 4.5"/><path fill="none" stroke="#000" stroke-linecap="round" stroke-linejoin="round" stroke-width="5" d="m20.95 36.65 2.3-5.3M4.15 23.55l2.15 9.2M6.3 32.75 4.55 41M4.55 41H3.3M12.65 25.2 14.4 34M14.4 34l-2.5 8.1M12 41.85l-2.3.4"/></g><g id="b" fill-rule="evenodd"><path d="M18.4 12.95q-.3 3.25-3.15 4.45-2.7 2.65-7.1 2.3-2.55-.85-4.95-2.15Q.25 15.9 0 12.35q-.2-3.4 2-6.05 2.2-2.7 5.6-3.15 3.4-.4 6.2 1.5 2.8 1.95 4.05 5.1.7 1.5.55 3.2"/><path d="M13.5.05Q15.2-.4 17 6.5q.55 2.15.5 2.85l-1.25.35Q13.6 8.6 12.1 7.6q-2.05-1.35-2.85-2.95l.1-.05.1-.2.75.2.35.15L11.6 2.4Q12.7.25 13.5.05M.45 4.7.9.25q1.3.7 2.4 1.6 1.8 1.4 2.15 2.55.35 1.45-1.15 3-1.25 1.4-2.95 2Q.4 7.65.45 4.7"/></g></defs></svg>