<svg xmlns="http://www.w3.org/2000/svg" xmlns:xlink="http://www.w3.org/1999/xlink" width="49.75" height="70.15" transform="scale(-1 1)"><g transform="translate(32.75 36.25)"><use xlink:href="#a" width="33.1" height="54.15" transform="translate(-28.6 -20.25)"/><use xlink:href="#b" width="18.45" height="19.75" transform="translate(-32.75 6.05)"/></g><defs><g id="a"><path fill="none" stroke="#000" stroke-linecap="round" stroke-linejoin="round" stroke-width="5" d="M19.6 18.25q1.8-1 3.25-3.25l2.5-4.75 3.1-3.55q2-2.05 2.15-4.2"/><path fill-rule="evenodd" d="M21.05 31.7q-2.25 2.35-5.45 2.35t-5.45-2.35-2.25-5.65 2.25-5.65 5.45-2.35 5.45 2.35 2.25 5.65-2.25 5.65"/><path fill="none" stroke="#000" stroke-linecap="round" stroke-linejoin="round" stroke-width="4" d="M21.05 31.7q-2.25 2.35-5.45 2.35t-5.45-2.35-2.25-5.65 2.25-5.65 5.45-2.35 5.45 2.35 2.25 5.65-2.25 5.65"/><path fill-rule="evenodd" d="M13 25q1.8 1.9 1.8 4.55t-1.8 4.5q-1.85 1.9-4.45 1.9-2.55 0-4.4-1.9-1.85-1.85-1.85-4.5T4.15 25q1.85-1.85 4.4-1.85 2.6 0 4.45 1.85"/><path fill="none" stroke="#000" stroke-linecap="round" stroke-linejoin="round" stroke-width="4" d="M13 25q1.8 1.9 1.8 4.55t-1.8 4.5q-1.85 1.9-4.45 1.9-2.55 0-4.4-1.9-1.85-1.85-1.85-4.5T4.15 25q1.85-1.85 4.4-1.85 2.6 0 4.45 1.85"/><path fill="none" stroke="#000" stroke-linecap="round" stroke-linejoin="round" stroke-width="5" d="M23.6 26.75V27l-2.75 2.95Q19 32.25 18.6 33.5v2.75h1q.25-.75 1.75-2.25v.35l-1.8 3.95q-1.1 2.45-1.7 5.45M13.35 31.5v.25L13.6 39q0 3.2-1.6 7.4-1.75 4.65-3.65 4.6M2.5 51.65q1.15-.9 1.35-4.1v-5.3L5.4 37.1q.95-3.5.7-5.1"/></g><g id="b" fill-rule="evenodd"><path d="M18.4 12.95q-.3 3.25-3.15 4.45-2.7 2.65-7.1 2.3-2.55-.85-4.95-2.15Q.25 15.9 0 12.35q-.2-3.4 2-6.05 2.2-2.7 5.6-3.15 3.4-.4 6.2 1.5 2.8 1.95 4.05 5.1.7 1.5.55 3.2"/><path d="M13.5.05Q15.2-.4 17 6.5q.55 2.15.5 2.85l-1.25.35Q13.6 8.6 12.1 7.6q-2.05-1.35-2.85-2.95l.1-.05.1-.2.75.2.35.15L11.6 2.4Q12.7.25 13.5.05M.45 4.7.9.25q1.3.7 2.4 1.6 1.8 1.4 2.15 2.55.35 1.45-1.15 3-1.25 1.4-2.95 2Q.4 7.65.45 4.7"/></g></defs></svg>