<svg fill="currentColor" stroke="currentColor" color="cat-color" xmlns="http://www.w3.org/2000/svg" xmlns:xlink="http://www.w3.org/1999/xlink" width="49.75" height="70.15"><g transform="translate(32.75 36.25)"><use xlink:href="#a" width="34.65" height="61.75" transform="translate(-19.15 -36.25)"/><use xlink:href="#b" width="18.45" height="19.75" transform="translate(-23.95 -10.45)"/></g><defs><g id="a"><path fill="none" stroke="currentColor" stroke-linecap="round" stroke-linejoin="round" stroke-width="5" d="M32.15 2.5q-2.7 0-3.3 3.1-.2.9-.2 5.9 0 3.2-2.25 4.4-3 1.6-3.75 3.1"/><path fill-rule="evenodd" d="M24.1 31.3q-2.25 2.35-5.45 2.35T13.2 31.3t-2.25-5.65T13.2 20t5.45-2.35T24.1 20t2.25 5.65-2.25 5.65"/><path fill="none" stroke="currentColor" stroke-linecap="round" stroke-linejoin="round" stroke-width="4" d="M24.1 31.3q-2.25 2.35-5.45 2.35T13.2 31.3t-2.25-5.65T13.2 20t5.45-2.35T24.1 20t2.25 5.65-2.25 5.65"/><path fill-rule="evenodd" d="M12.7 36.4q-1.85 1.9-4.45 1.9-2.55 0-4.4-1.9Q2 34.55 2 31.9t1.85-4.55q1.85-1.85 4.4-1.85 2.6 0 4.45 1.85 1.8 1.9 1.8 4.55t-1.8 4.5"/><path fill="none" stroke="currentColor" stroke-linecap="round" stroke-linejoin="round" stroke-width="4" d="M12.7 36.4q-1.85 1.9-4.45 1.9-2.55 0-4.4-1.9Q2 34.55 2 31.9t1.85-4.55q1.85-1.85 4.4-1.85 2.6 0 4.45 1.85 1.8 1.9 1.8 4.55t-1.8 4.5"/><path fill="none" stroke="currentColor" stroke-linecap="round" stroke-linejoin="round" stroke-width="5" d="m27.35 36.85-.65-5.7M3.4 44.5l-.25 7.85-.25 6.9m12.5-22q0 3.9-2.6 5.4-3.55 2.05-3.9 2.6-1.75 2.95-2.3 4.6Q5.55 52.9 6.15 56"/></g><g id="b" fill-rule="evenodd"><path d="M18.4 12.95q-.3 3.25-3.15 4.45-2.7 2.65-7.1 2.3-2.55-.85-4.95-2.15Q.25 15.9 0 12.35q-.2-3.4 2-6.05 2.2-2.7 5.6-3.15 3.4-.4 6.2 1.5 2.8 1.95 4.05 5.1.7 1.5.55 3.2"/><path d="M13.5.05Q15.2-.4 17 6.5q.55 2.15.5 2.85l-1.25.35Q13.6 8.6 12.1 7.6q-2.05-1.35-2.85-2.95l.1-.05.1-.2.75.2.35.15L11.6 2.4Q12.7.25 13.5.05M.45 4.7.9.25q1.3.7 2.4 1.6 1.8 1.4 2.15 2.55.35 1.45-1.15 3-1.25 1.4-2.95 2Q.4 7.65.45 4.7"/></g></defs></svg>
