<svg xmlns="http://www.w3.org/2000/svg" xmlns:xlink="http://www.w3.org/1999/xlink" width="49.75" height="70.15"><g transform="translate(32.75 36.25)"><use xlink:href="#a" width="36.75" height="59.75" transform="translate(-27 -28.25)"/><use xlink:href="#b" width="18.45" height="19.75" transform="translate(-29.5 4.05)"/></g><defs><g id="a"><path fill="none" stroke="#000" stroke-linecap="round" stroke-linejoin="round" stroke-width="5" d="M21.5 15.25q-.35-2.55 2.95-3.1 3.65-.6 3.8-3.15.1-2.15 1.35-4 1.7-2.55 4.65-2.5"/><path fill-rule="evenodd" d="M24.45 28.9Q22.2 31.25 19 31.25t-5.45-2.35-2.25-5.65 2.25-5.65T19 15.25t5.45 2.35 2.25 5.65-2.25 5.65"/><path fill="none" stroke="#000" stroke-linecap="round" stroke-linejoin="round" stroke-width="4" d="M24.45 28.9Q22.2 31.25 19 31.25t-5.45-2.35-2.25-5.65 2.25-5.65T19 15.25t5.45 2.35 2.25 5.65-2.25 5.65"/><path fill-rule="evenodd" d="M16.4 36.55q-1.85 1.9-4.45 1.9-2.55 0-4.4-1.9-1.85-1.85-1.85-4.5t1.85-4.55q1.85-1.85 4.4-1.85 2.6 0 4.45 1.85 1.8 1.9 1.8 4.55t-1.8 4.5"/><path fill="none" stroke="#000" stroke-linecap="round" stroke-linejoin="round" stroke-width="4" d="M16.4 36.55q-1.85 1.9-4.45 1.9-2.55 0-4.4-1.9-1.85-1.85-1.85-4.5t1.85-4.55q1.85-1.85 4.4-1.85 2.6 0 4.45 1.85 1.8 1.9 1.8 4.55t-1.8 4.5"/><path fill="none" stroke="#000" stroke-linecap="round" stroke-linejoin="round" stroke-width="5" d="M25.75 25.25q.75-.15 2.85-1.55l2.65-1.7v7.5q-.25 0-.25.5h-.25M15.5 39.5q1.5-.85 2-.75V42L15 50q-.3.9-1.2 1.55l-1.55 1.2-1.25 1.8q-.65.7-1.7.45m-6.8 2.25h1.75q3.1-5.9 2.5-15.75"/></g><g id="b" fill-rule="evenodd"><path d="M18.4 12.95q-.3 3.25-3.15 4.45-2.7 2.65-7.1 2.3-2.55-.85-4.95-2.15Q.25 15.9 0 12.35q-.2-3.4 2-6.05 2.2-2.7 5.6-3.15 3.4-.4 6.2 1.5 2.8 1.95 4.05 5.1.7 1.5.55 3.2"/><path d="M13.5.05Q15.2-.4 17 6.5q.55 2.15.5 2.85l-1.25.35Q13.6 8.6 12.1 7.6q-2.05-1.35-2.85-2.95l.1-.05.1-.2.75.2.35.15L11.6 2.4Q12.7.25 13.5.05M.45 4.7.9.25q1.3.7 2.4 1.6 1.8 1.4 2.15 2.55.35 1.45-1.15 3-1.25 1.4-2.95 2Q.4 7.65.45 4.7"/></g></defs></svg>